<svg xmlns="http://www.w3.org/2000/svg" viewBox="0 0 400 500" role="img" aria-label="Mate de calabaza con virola de alpaca"><defs>
<linearGradient id="mmetal" x1="0" x2="1" y1="0" y2="0">
<stop offset="0" stop-color="#5e5e5e"/><stop offset=".18" stop-color="#cfcfcf"/>
<stop offset=".32" stop-color="#fbfbfb"/><stop offset=".55" stop-color="#9d9d9d"/>
<stop offset=".78" stop-color="#e6e6e6"/><stop offset="1" stop-color="#555"/>
</linearGradient>
<linearGradient id="mvolumen" x1="0" x2="1">
<stop offset="0" stop-color="#000" stop-opacity=".42"/><stop offset=".22" stop-color="#000" stop-opacity="0"/>
<stop offset=".62" stop-color="#000" stop-opacity="0"/><stop offset="1" stop-color="#000" stop-opacity=".55"/>
</linearGradient>
<radialGradient id="msombra"><stop offset="0" stop-color="#000" stop-opacity=".38"/><stop offset="1" stop-color="#000" stop-opacity="0"/></radialGradient><filter id="mblur" x="-50%" y="-50%" width="200%" height="200%"><feGaussianBlur stdDeviation="7"/></filter><filter id="mblur2" x="-50%" y="-50%" width="200%" height="200%"><feGaussianBlur stdDeviation="1.5"/></filter>
<radialGradient id="mcuerpo" cx=".36" cy=".38" r=".75">
<stop offset="0" stop-color="#e9e9e9"/><stop offset=".42" stop-color="#b3b3b3"/>
<stop offset=".8" stop-color="#626262"/><stop offset="1" stop-color="#2f2f2f"/>
</radialGradient></defs><g>
<ellipse cx="200" cy="452" rx="132" ry="14.52" fill="url(#msombra)"/>
<path d="M138,190 C116,222 74,252 72,326 C70,404 128,448 200,448 C272,448 330,404 328,326 C326,252 284,222 262,190 Z" fill="url(#mcuerpo)"/>
<path d="M96,254 C90,300 92,380 142.8,440" stroke="#000" stroke-opacity=".07" stroke-width="1.4" fill="none"/><path d="M122,248 C117,300 119,380 157.1,440" stroke="#000" stroke-opacity=".07" stroke-width="1.4" fill="none"/><path d="M148,242 C144,300 146,380 171.4,440" stroke="#000" stroke-opacity=".07" stroke-width="1.4" fill="none"/><path d="M174,236 C171,300 173,380 185.7,440" stroke="#000" stroke-opacity=".07" stroke-width="1.4" fill="none"/><path d="M200,230 C198,300 200,380 200,440" stroke="#000" stroke-opacity=".07" stroke-width="1.4" fill="none"/><path d="M226,236 C225,300 227,380 214.3,440" stroke="#000" stroke-opacity=".07" stroke-width="1.4" fill="none"/><path d="M252,242 C252,300 254,380 228.6,440" stroke="#000" stroke-opacity=".07" stroke-width="1.4" fill="none"/><path d="M278,248 C279,300 281,380 242.9,440" stroke="#000" stroke-opacity=".07" stroke-width="1.4" fill="none"/><path d="M304,254 C306,300 308,380 257.2,440" stroke="#000" stroke-opacity=".07" stroke-width="1.4" fill="none"/>
<path d="M138,190 C116,222 74,252 72,326 C70,404 128,448 200,448 C272,448 330,404 328,326 C326,252 284,222 262,190 Z" fill="url(#mvolumen)"/>
<ellipse cx="146" cy="300" rx="18" ry="58" transform="rotate(-14 146 300)" fill="#fff" opacity="0.35" filter="url(#mblur)"/>
<ellipse cx="200" cy="176" rx="66" ry="11.22" fill="url(#mmetal)"/>
<ellipse cx="200" cy="176" rx="66" ry="11.22" fill="none" stroke="#5a5a5a" stroke-width="1"/>
<ellipse cx="200" cy="177" rx="59" ry="8.184" fill="#262626"/>
<path d="M145,178 Q176.4,158.9952 205.9,163.9056 Q235.4,167.9976 255,178 Q200,184.3656 145,178Z" fill="#3a3a3a"/>
<circle cx="252.1" cy="175.0" r="0.92" fill="#5c5c5c"/><circle cx="194.9" cy="170.3" r="0.96" fill="#8a8a8a"/><circle cx="201.3" cy="170.2" r="1.35" fill="#8a8a8a"/><circle cx="210.9" cy="172.1" r="1.01" fill="#8a8a8a"/><circle cx="196.0" cy="173.6" r="1.35" fill="#5c5c5c"/><circle cx="243.1" cy="172.2" r="0.74" fill="#8a8a8a"/><circle cx="239.9" cy="172.5" r="1.31" fill="#8a8a8a"/><circle cx="244.0" cy="171.7" r="1.01" fill="#5c5c5c"/><circle cx="216.3" cy="171.8" r="0.77" fill="#5c5c5c"/><circle cx="173.5" cy="176.5" r="1.63" fill="#8a8a8a"/><circle cx="193.4" cy="168.9" r="0.66" fill="#5c5c5c"/><circle cx="164.1" cy="173.3" r="1.06" fill="#5c5c5c"/><circle cx="210.7" cy="174.2" r="1.00" fill="#5c5c5c"/><circle cx="173.3" cy="169.6" r="1.17" fill="#5c5c5c"/><circle cx="176.0" cy="176.9" r="1.00" fill="#5c5c5c"/><circle cx="180.4" cy="179.1" r="1.28" fill="#5c5c5c"/><circle cx="230.6" cy="172.5" r="1.55" fill="#8a8a8a"/><circle cx="174.1" cy="171.5" r="1.16" fill="#8a8a8a"/><circle cx="231.8" cy="173.5" r="1.38" fill="#5c5c5c"/><circle cx="172.5" cy="173.0" r="0.96" fill="#5c5c5c"/><circle cx="214.1" cy="169.1" r="0.72" fill="#8a8a8a"/><circle cx="230.6" cy="177.0" r="0.77" fill="#5c5c5c"/><circle cx="225.5" cy="174.9" r="1.30" fill="#5c5c5c"/><circle cx="159.7" cy="176.3" r="0.75" fill="#8a8a8a"/><circle cx="238.3" cy="170.9" r="1.57" fill="#8a8a8a"/><circle cx="202.0" cy="171.6" r="0.61" fill="#5c5c5c"/><circle cx="201.9" cy="175.1" r="1.28" fill="#5c5c5c"/><circle cx="197.9" cy="170.4" r="1.36" fill="#5c5c5c"/><circle cx="219.4" cy="172.9" r="1.01" fill="#8a8a8a"/><circle cx="227.9" cy="178.1" r="0.60" fill="#8a8a8a"/><circle cx="166.0" cy="170.2" r="0.62" fill="#8a8a8a"/><circle cx="220.2" cy="181.0" r="1.22" fill="#8a8a8a"/><circle cx="197.4" cy="178.1" r="0.83" fill="#8a8a8a"/><circle cx="245.1" cy="176.9" r="1.37" fill="#8a8a8a"/><circle cx="190.2" cy="175.0" r="0.72" fill="#8a8a8a"/><circle cx="230.7" cy="179.0" r="1.58" fill="#5c5c5c"/><circle cx="237.4" cy="170.9" r="1.69" fill="#8a8a8a"/><circle cx="203.3" cy="170.8" r="0.87" fill="#8a8a8a"/><circle cx="225.3" cy="172.2" r="0.86" fill="#5c5c5c"/><circle cx="230.8" cy="171.8" r="0.99" fill="#8a8a8a"/><circle cx="197.0" cy="171.2" r="1.40" fill="#5c5c5c"/><circle cx="209.6" cy="178.5" r="1.68" fill="#8a8a8a"/><circle cx="165.9" cy="170.5" r="1.61" fill="#5c5c5c"/><circle cx="187.8" cy="173.1" r="1.15" fill="#8a8a8a"/><circle cx="207.1" cy="168.7" r="1.13" fill="#5c5c5c"/><circle cx="179.1" cy="175.9" r="1.33" fill="#8a8a8a"/><circle cx="164.2" cy="173.2" r="1.43" fill="#5c5c5c"/><circle cx="200.0" cy="173.9" r="0.93" fill="#8a8a8a"/><circle cx="213.5" cy="180.3" r="0.92" fill="#5c5c5c"/><circle cx="180.9" cy="171.4" r="0.68" fill="#8a8a8a"/><circle cx="223.0" cy="169.4" r="1.60" fill="#8a8a8a"/><circle cx="208.3" cy="174.7" r="1.44" fill="#8a8a8a"/><circle cx="191.6" cy="168.9" r="0.64" fill="#5c5c5c"/><circle cx="215.6" cy="176.0" r="0.69" fill="#5c5c5c"/><circle cx="158.3" cy="171.1" r="0.81" fill="#5c5c5c"/><circle cx="213.2" cy="180.1" r="0.87" fill="#5c5c5c"/><circle cx="235.3" cy="174.8" r="1.34" fill="#8a8a8a"/><circle cx="172.1" cy="177.5" r="0.67" fill="#5c5c5c"/><circle cx="219.0" cy="169.0" r="0.77" fill="#8a8a8a"/><circle cx="181.1" cy="174.9" r="0.83" fill="#8a8a8a"/><circle cx="207.3" cy="176.6" r="0.90" fill="#8a8a8a"/><circle cx="164.7" cy="173.4" r="1.69" fill="#5c5c5c"/><circle cx="174.0" cy="176.9" r="0.60" fill="#5c5c5c"/><circle cx="186.0" cy="176.0" r="0.86" fill="#8a8a8a"/><circle cx="208.1" cy="169.4" r="1.08" fill="#8a8a8a"/><circle cx="247.2" cy="173.6" r="1.33" fill="#8a8a8a"/><circle cx="180.0" cy="178.4" r="1.15" fill="#5c5c5c"/><circle cx="158.0" cy="172.7" r="1.33" fill="#8a8a8a"/><circle cx="193.3" cy="168.9" r="1.53" fill="#8a8a8a"/><circle cx="165.0" cy="176.7" r="1.65" fill="#8a8a8a"/>
<g stroke-linecap="round" fill="none">
<path d="M226,178 L290,52 Q295,40 310,38 L328,37" stroke="#7a7a7a" stroke-width="9"/>
<path d="M226,178 L290,52 Q295,40 310,38 L328,37" stroke="#d9d9d9" stroke-width="6"/>
<path d="M224.5,177 L288.5,51" stroke="#fff" stroke-width="1.6" opacity=".9"/>
<ellipse cx="272.08" cy="87.28" rx="7" ry="3.2" transform="rotate(26.9276778510405 272.08 87.28)" fill="url(#mmetal)" stroke="#6b6b6b" stroke-width=".8"/>
</g>
<path d="M134,176 L266,176 L261,198 Q200,208 139,198 Z" fill="url(#mmetal)"/>
<path d="M141,188.1 Q200,196.1 259,188.1" stroke="#4d4d4d" stroke-width="7.48" stroke-dasharray="1.4 4.2" fill="none" opacity=".55"/>
<path d="M139,198 Q200,208 261,198" stroke="#3d3d3d" stroke-width="1.2" fill="none" opacity=".6"/></g></svg>
